<svg viewBox="0 0 32 32" fill="none" xmlns="http://www.w3.org/2000/svg" class="css-1j3vop5"><path fill-rule="evenodd" clip-rule="evenodd" d="M16 32c8.837 0 16-7.163 16-16S24.837 0 16 0 0 7.163 0 16s7.163 16 16 16zm3.88-23.814C18.866 8.14 18.563 8.13 16 8.13c-2.563 0-2.867.01-3.88.056-.935.042-1.444.199-1.782.33a2.969 2.969 0 00-1.104.718 2.978 2.978 0 00-.718 1.104c-.131.338-.288.847-.33 1.783C8.14 13.133 8.13 13.437 8.13 16c0 2.564.01 2.867.056 3.88.042.935.199 1.444.33 1.782.174.448.382.768.718 1.104.336.336.656.544 1.104.718.338.131.847.288 1.783.33 1.012.046 1.316.056 3.879.056 2.564 0 2.867-.01 3.88-.056.935-.042 1.444-.199 1.782-.33a2.97 2.97 0 001.104-.718c.336-.336.544-.656.718-1.104.131-.338.288-.847.33-1.783.046-1.012.056-1.316.056-3.879 0-2.563-.01-2.867-.056-3.88-.042-.935-.199-1.444-.33-1.782a2.969 2.969 0 00-.718-1.104 2.978 2.978 0 00-1.104-.718c-.338-.131-.847-.288-1.783-.33zm-7.838-1.728C13.066 6.41 13.392 6.4 16 6.4c2.607 0 2.934.011 3.958.058 1.022.046 1.72.209 2.33.446A4.705 4.705 0 0123.99 8.01a4.701 4.701 0 011.108 1.7c.237.611.4 1.31.446 2.33.047 1.025.058 1.352.058 3.959s-.011 2.934-.058 3.958c-.047 1.022-.209 1.72-.446 2.33a4.705 4.705 0 01-1.108 1.7 4.701 4.701 0 01-1.7 1.108c-.61.238-1.309.4-2.33.446-1.024.047-1.351.058-3.959.058-2.607 0-2.934-.01-3.958-.058-1.021-.046-1.72-.208-2.33-.446a4.704 4.704 0 01-1.7-1.107 4.702 4.702 0 01-1.108-1.7c-.237-.611-.4-1.31-.446-2.33C6.41 18.933 6.4 18.606 6.4 16s.011-2.934.058-3.958c.046-1.022.209-1.72.446-2.33a4.702 4.702 0 011.107-1.7 4.702 4.702 0 011.7-1.108c.611-.237 1.31-.4 2.33-.446zm3.957 4.612a4.93 4.93 0 100 9.86 4.93 4.93 0 000-9.86zm0 8.13a3.2 3.2 0 110-6.4 3.2 3.2 0 010 6.4zm6.278-8.326a1.152 1.152 0 11-2.304 0 1.152 1.152 0 012.304 0z" style="fill: #dc0714;"></path></svg>