<svg viewBox="0 0 24 24" fill="none" xmlns="http://www.w3.org/2000/svg" class="jsx-415680934 twitter"><path fill-rule="evenodd" clip-rule="evenodd" d="M24 12C24 18.6274 18.6274 24 12 24C5.37258 24 0 18.6274 0 12C0 5.37258 5.37258 0 12 0C18.6274 0 24 5.37258 24 12ZM6.2163 9.1837H8.90806V18.0014H6.2163V9.1837ZM7.56218 4.8C8.42456 4.8 9.12295 5.51192 9.12295 6.38924C9.12295 7.26655 8.42315 7.97703 7.56077 7.97703C6.69839 7.97703 6 7.26655 6 6.38924C6 5.51192 6.69839 4.8 7.56077 4.8H7.56218ZM12.9838 9.1837H10.4023V17.9986H13.0941V13.6379C13.0941 12.4887 13.3259 11.3741 14.7086 11.3741C16.0912 11.3741 16.1096 12.6901 16.1096 13.7127V18H18.8014V13.1647C18.8014 10.7916 18.2981 8.96509 15.5696 8.96509C14.5262 8.92482 13.5465 9.47278 13.0206 10.3889H12.9838V9.1837Z" class="jsx-415680934" style="fill: #ffffff;"></path></svg>