<svg xmlns="http://www.w3.org/2000/svg" fill="none" viewBox="0 0 60 60" class="css-1j3vop5"><path fill-rule="evenodd" d="M30 60c16.569 0 30-13.431 30-30C60 13.431 46.569 0 30 0 13.431 0 0 13.431 0 30c0 16.569 13.431 30 30 30zm15.075-33.39c.307-.002.614-.017.92-.045H46v-5.99c-4.817-.34-8.69-3.951-9.195-8.575H31.45l-.056 25.133c0 3.084-2.829 5.513-6.032 5.513-3.202 0-5.798-2.499-5.798-5.582 0-3.083 2.596-5.582 5.798-5.582.178 0 .35.022.523.045.06.008.12.016.18.022v-5.39l-.163-.01a7.956 7.956 0 00-.54-.024C19.087 26.125 14 31.022 14 37.062 14 43.103 19.087 48 25.361 48c6.275 0 11.362-4.897 11.362-10.938V22.264c1.844 2.712 4.985 4.346 8.352 4.346z" clip-rule="evenodd" style="fill: rgb(255, 255, 255);"></path></svg>