<svg viewBox="0 0 32 32" fill="none" xmlns="http://www.w3.org/2000/svg" class="jsx-415680934 twitter"><path fill-rule="evenodd" clip-rule="evenodd" d="M16 32c8.837 0 16-7.163 16-16S24.837 0 16 0 0 7.163 0 16s7.163 16 16 16zm6.562-22.727a7.827 7.827 0 002.504-.98 3.925 3.925 0 01-1.729 2.22A7.684 7.684 0 0025.6 9.88a8.109 8.109 0 01-1.964 2.09c.005.173.01.345.01.524 0 5.342-3.959 11.495-11.207 11.495-2.226 0-4.295-.67-6.039-1.812a7.773 7.773 0 005.83-1.67c-1.73-.032-3.18-1.2-3.683-2.802.241.047.493.073.744.073.356 0 .707-.047 1.037-.141-1.807-.367-3.163-2.001-3.163-3.96v-.047a3.92 3.92 0 001.786.503 4.067 4.067 0 01-1.755-3.362c0-.739.194-1.435.534-2.033 1.943 2.446 4.85 4.054 8.118 4.222a4.141 4.141 0 01-.1-.922c0-2.231 1.766-4.038 3.94-4.038 1.136 0 2.162.492 2.874 1.273z" class="jsx-415680934" style="fill: rgb(255, 255, 255);"></path></svg>