<svg viewBox="0 0 32 32" fill="none" xmlns="http://www.w3.org/2000/svg" class="css-1j3vop5"><path fill-rule="evenodd" clip-rule="evenodd" d="M16 32c8.837 0 16-7.163 16-16S24.837 0 16 0 0 7.163 0 16s7.163 16 16 16zm-.795-9.434h1.725l.085-.004.183-.009.893-.018c.655-.013 1.31-.026 1.963-.05a54.52 54.52 0 002.282-.137 7.56 7.56 0 001.207-.173c.937-.231 1.53-.838 1.78-1.767.116-.426.166-.863.217-1.301.005-.049.01-.098.017-.146.042-.359.041-.717.04-1.076v-.092l.002-1.186c.001-1.148.003-2.297-.006-3.446a7.879 7.879 0 00-.11-1.102c-.05-.334-.103-.675-.21-.994-.295-.887-.918-1.43-1.831-1.631a9.112 9.112 0 00-1.449-.181l-.503-.03a74.633 74.633 0 00-2.41-.114 131.997 131.997 0 00-3.83-.042c-1.075.004-2.15.036-3.224.072-.691.023-1.383.07-2.073.118-.468.033-.939.066-1.393.19-.922.248-1.51.847-1.766 1.761-.14.499-.193 1.014-.244 1.529-.082.83-.122 1.664-.139 2.498 0 .024-.003.048-.007.071l-.004.033v.944l.005.056c.003.039.007.077.008.116.01.209.02.418.028.627.02.454.04.909.07 1.363.045.66.106 1.32.28 1.96.265.967.9 1.561 1.876 1.783a8.82 8.82 0 001.44.181c.935.055 1.87.107 2.806.143.506.02 1.012.027 1.518.034l.693.012c.018 0 .036.003.055.005l.026.003zm-1.072-9.65l5.03 2.895-5.03 2.895v-5.79z" style="fill: rgb(255, 255, 255);"></path></svg>